{
  "accessors": [
    {
      "bufferView": 2,
      "componentType": 5126,
      "count": 15916,
      "max": [
        0.9931427240371704,
        0.2554536461830139,
        0.7038325667381287
      ],
      "min": [
        -1.8786659240722656,
        -0.2950728237628937,
        -3.2342870235443115
      ],
      "type": "VEC3"
    },
    {
      "bufferView": 2,
      "byteOffset": 190992,
      "componentType": 5126,
      "count": 15916,
      "max": [
        0.99993497133255,
        0.9999980926513672,
        1.0
      ],
      "min": [
        -0.9999349117279053,
        -0.9999980926513672,
        -1.0
      ],
      "type": "VEC3"
    },
    {
      "bufferView": 1,
      "componentType": 5126,
      "count": 15916,
      "max": [
        0.0,
        0.0
      ],
      "min": [
        0.0,
        0.0
      ],
      "type": "VEC2"
    },
    {
      "bufferView": 0,
      "componentType": 5125,
      "count": 95232,
      "type": "SCALAR"
    },
    {
      "bufferView": 2,
      "byteOffset": 381984,
      "componentType": 5126,
      "count": 40690,
      "max": [
        4.758384704589844,
        28.248708724975586,
        9.102334022521973
      ],
      "min": [
        -6.041992664337158,
        1.7108516693115234,
        -11.38680362701416
      ],
      "type": "VEC3"
    },
    {
      "bufferView": 2,
      "byteOffset": 870264,
      "componentType": 5126,
      "count": 40690,
      "max": [
        0.9997890591621399,
        0.9982231855392456,
        0.9998939037322998
      ],
      "min": [
        -0.999968409538269,
        -0.9999972581863403,
        -0.9999721646308899
      ],
      "type": "VEC3"
    },
    {
      "bufferView": 1,
      "byteOffset": 127328,
      "componentType": 5126,
      "count": 40690,
      "max": [
        1.0,
        0.0
      ],
      "min": [
        0.0,
        0.0
      ],
      "type": "VEC2"
    },
    {
      "bufferView": 1,
      "byteOffset": 452848,
      "componentType": 5126,
      "count": 40690,
      "max": [
        1.0,
        0.0
      ],
      "min": [
        0.0,
        0.0
      ],
      "type": "VEC2"
    },
    {
      "bufferView": 1,
      "byteOffset": 778368,
      "componentType": 5126,
      "count": 40690,
      "max": [
        1.0,
        0.0
      ],
      "min": [
        0.0,
        0.0
      ],
      "type": "VEC2"
    },
    {
      "bufferView": 0,
      "byteOffset": 380928,
      "componentType": 5125,
      "count": 173964,
      "type": "SCALAR"
    },
    {
      "bufferView": 2,
      "byteOffset": 1358544,
      "componentType": 5126,
      "count": 65532,
      "max": [
        5.897364616394043,
        13.459519386291504,
        9.051196098327637
      ],
      "min": [
        -6.874538421630859,
        -0.24783992767333984,
        -10.64289665222168
      ],
      "type": "VEC3"
    },
    {
      "bufferView": 2,
      "byteOffset": 2144928,
      "componentType": 5126,
      "count": 65532,
      "max": [
        0.9999915957450867,
        1.0,
        0.9999990463256836
      ],
      "min": [
        -0.9999938011169434,
        -1.0,
        -0.9999998211860657
      ],
      "type": "VEC3"
    },
    {
      "bufferView": 1,
      "byteOffset": 1103888,
      "componentType": 5126,
      "count": 65532,
      "max": [
        0.0,
        0.0
      ],
      "min": [
        0.0,
        0.0
      ],
      "type": "VEC2"
    },
    {
      "bufferView": 1,
      "byteOffset": 1628144,
      "componentType": 5126,
      "count": 65532,
      "max": [
        0.0,
        0.0
      ],
      "min": [
        0.0,
        0.0
      ],
      "type": "VEC2"
    },
    {
      "bufferView": 1,
      "byteOffset": 2152400,
      "componentType": 5126,
      "count": 65532,
      "max": [
        0.0,
        0.0
      ],
      "min": [
        0.0,
        0.0
      ],
      "type": "VEC2"
    },
    {
      "bufferView": 0,
      "byteOffset": 1076784,
      "componentType": 5125,
      "count": 384468,
      "type": "SCALAR"
    },
    {
      "bufferView": 2,
      "byteOffset": 2931312,
      "componentType": 5126,
      "count": 12404,
      "max": [
        5.751365661621094,
        13.45954704284668,
        9.098496437072754
      ],
      "min": [
        -6.754546165466309,
        -0.24783611297607422,
        -10.553370475769043
      ],
      "type": "VEC3"
    },
    {
      "bufferView": 2,
      "byteOffset": 3080160,
      "componentType": 5126,
      "count": 12404,
      "max": [
        0.9999924302101135,
        1.0,
        0.9999839067459106
      ],
      "min": [
        -0.9999907612800598,
        -1.0,
        -0.9999935626983643
      ],
      "type": "VEC3"
    },
    {
      "bufferView": 1,
      "byteOffset": 2676656,
      "componentType": 5126,
      "count": 12404,
      "max": [
        0.0,
        0.0
      ],
      "min": [
        0.0,
        0.0
      ],
      "type": "VEC2"
    },
    {
      "bufferView": 1,
      "byteOffset": 2775888,
      "componentType": 5126,
      "count": 12404,
      "max": [
        0.0,
        0.0
      ],
      "min": [
        0.0,
        0.0
      ],
      "type": "VEC2"
    },
    {
      "bufferView": 1,
      "byteOffset": 2875120,
      "componentType": 5126,
      "count": 12404,
      "max": [
        0.0,
        0.0
      ],
      "min": [
        0.0,
        0.0
      ],
      "type": "VEC2"
    },
    {
      "bufferView": 0,
      "byteOffset": 2614656,
      "componentType": 5125,
      "count": 64236,
      "type": "SCALAR"
    },
    {
      "bufferView": 2,
      "byteOffset": 3229008,
      "componentType": 5126,
      "count": 1184,
      "max": [
        5.751365661621094,
        0.018268108367919922,
        8.1267728805542
      ],
      "min": [
        -6.745341777801514,
        -0.060739994049072266,
        -10.503619194030762
      ],
      "type": "VEC3"
    },
    {
      "bufferView": 2,
      "byteOffset": 3243216,
      "componentType": 5126,
      "count": 1184,
      "max": [
        3.0411299576371675e-06,
        -1.0,
        3.0665223675896414e-06
      ],
      "min": [
        -4.096501015737886e-06,
        -1.0,
        -3.0718697416887153e-06
      ],
      "type": "VEC3"
    },
    {
      "bufferView": 1,
      "byteOffset": 2974352,
      "componentType": 5126,
      "count": 1184,
      "max": [
        0.0,
        0.0
      ],
      "min": [
        0.0,
        0.0
      ],
      "type": "VEC2"
    },
    {
      "bufferView": 0,
      "byteOffset": 2871600,
      "componentType": 5125,
      "count": 3528,
      "type": "SCALAR"
    }
  ],
  "asset": {
    "extras": {
      "author": "Fevzi_Beydili (https://sketchfab.com/Fevzi_Beydili)",
      "license": "CC-BY-4.0 (http://creativecommons.org/licenses/by/4.0/)",
      "source": "https://sketchfab.com/3d-models/cyberpunk-johnny-silverhand-glasses-b4e811407a2545beb1f96372ce763255",
      "title": "Cyberpunk Johnny Silverhand Glasses"
    },
    "generator": "Sketchfab-17.15.0",
    "version": "2.0"
  },
  "bufferViews": [
    {
      "buffer": 0,
      "byteLength": 2885712,
      "name": "floatBufferViews",
      "target": 34963
    },
    {
      "buffer": 0,
      "byteLength": 2983824,
      "byteOffset": 2885712,
      "byteStride": 8,
      "name": "floatBufferViews",
      "target": 34962
    },
    {
      "buffer": 0,
      "byteLength": 3257424,
      "byteOffset": 5869536,
      "byteStride": 12,
      "name": "floatBufferViews",
      "target": 34962
    }
  ],
  "buffers": [
    {
      "byteLength": 9126960,
      "uri": "scene.bin"
    }
  ],
  "images": [
    {
      "uri": "textures/Siyah_baseColor.jpeg"
    },
    {
      "uri": "textures/Siyah_metallicRoughness.png"
    },
    {
      "uri": "textures/Gold_baseColor.jpeg"
    },
    {
      "uri": "textures/Gold_metallicRoughness.png"
    }
  ],
  "materials": [
    {
      "alphaMode": "BLEND",
      "doubleSided": true,
      "name": "Plastik",
      "pbrMetallicRoughness": {
        "baseColorFactor": [
          0.5399202322377528,
          0.48798392771589627,
          0.48798392771589627,
          0.7847642964245224
        ],
        "metallicFactor": 0.0,
        "roughnessFactor": 0.15085760261364606
      }
    },
    {
      "doubleSided": true,
      "name": "Siyah",
      "pbrMetallicRoughness": {
        "baseColorTexture": {
          "index": 0
        },
        "metallicRoughnessTexture": {
          "index": 1
        }
      }
    },
    {
      "doubleSided": true,
      "name": "Gold",
      "pbrMetallicRoughness": {
        "baseColorTexture": {
          "index": 2
        },
        "metallicRoughnessTexture": {
          "index": 3
        }
      }
    },
    {
      "alphaMode": "BLEND",
      "doubleSided": true,
      "name": "material",
      "pbrMetallicRoughness": {
        "baseColorFactor": [
          1.0,
          0.35153259950043925,
          0.08021982031446832,
          0.43123940949153367
        ],
        "metallicFactor": 0.21790542599748874,
        "roughnessFactor": 0.364191586107691
      }
    }
  ],
  "meshes": [
    {
      "name": "Johnny Glasses_Plastik_0",
      "primitives": [
        {
          "attributes": {
            "NORMAL": 1,
            "POSITION": 0,
            "TEXCOORD_0": 2
          },
          "indices": 3,
          "material": 0,
          "mode": 4
        }
      ]
    },
    {
      "name": "Johnny Glasses_Siyah_0",
      "primitives": [
        {
          "attributes": {
            "NORMAL": 5,
            "POSITION": 4,
            "TEXCOORD_0": 6,
            "TEXCOORD_1": 7,
            "TEXCOORD_2": 8
          },
          "indices": 9,
          "material": 1,
          "mode": 4
        }
      ]
    },
    {
      "name": "Johnny Glasses_Gold_0",
      "primitives": [
        {
          "attributes": {
            "NORMAL": 11,
            "POSITION": 10,
            "TEXCOORD_0": 12,
            "TEXCOORD_1": 13,
            "TEXCOORD_2": 14
          },
          "indices": 15,
          "material": 2,
          "mode": 4
        }
      ]
    },
    {
      "name": "Johnny Glasses_Gold_0",
      "primitives": [
        {
          "attributes": {
            "NORMAL": 17,
            "POSITION": 16,
            "TEXCOORD_0": 18,
            "TEXCOORD_1": 19,
            "TEXCOORD_2": 20
          },
          "indices": 21,
          "material": 2,
          "mode": 4
        }
      ]
    },
    {
      "name": "Johnny Glasses_Cam_0",
      "primitives": [
        {
          "attributes": {
            "NORMAL": 23,
            "POSITION": 22,
            "TEXCOORD_0": 24
          },
          "indices": 25,
          "material": 3,
          "mode": 4
        }
      ]
    }
  ],
  "nodes": [
    {
      "children": [
        1
      ],
      "matrix": [
        1.0,
        0.0,
        0.0,
        0.0,
        0.0,
        2.220446049250313e-16,
        -1.0,
        0.0,
        0.0,
        1.0,
        2.220446049250313e-16,
        0.0,
        0.0,
        0.0,
        0.0,
        1.0
      ],
      "name": "Sketchfab_model"
    },
    {
      "children": [
        2
      ],
      "matrix": [
        0.009999999776482582,
        0.0,
        0.0,
        0.0,
        0.0,
        0.0,
        0.009999999776482582,
        0.0,
        0.0,
        -0.009999999776482582,
        0.0,
        0.0,
        0.0,
        0.0,
        0.0,
        1.0
      ],
      "name": "Johnny glasses.fbx"
    },
    {
      "children": [
        3,
        5,
        11
      ],
      "name": "RootNode"
    },
    {
      "children": [
        4
      ],
      "matrix": [
        69.21590232268704,
        -14.608010990926456,
        -70.68071416352817,
        0.0,
        10.220784869131805,
        98.92728377770304,
        -10.436934746548108,
        0.0,
        71.44714470253678,
        -0.00010517897489039481,
        69.96647082512219,
        0.0,
        -382.0447082519531,
        216.99032592773438,
        260.0899963378906,
        1.0
      ],
      "name": "Camera"
    },
    {
      "name": "Object_4"
    },
    {
      "children": [
        6,
        7,
        8,
        9,
        10
      ],
      "matrix": [
        5.156121617116442,
        -11.772890236098153,
        -3.313226482064722e-06,
        0.0,
        -1.232679248438168e-06,
        1.878326759106091e-06,
        -8.592584609985058,
        0.0,
        11.772890236098474,
        5.15612161711674,
        -5.618002610867716e-07,
        0.0,
        8.747685432434082,
        130.97332763671875,
        -2.0626659393310547,
        1.0
      ],
      "name": "Johnny Glasses"
    },
    {
      "mesh": 0,
      "name": "Johnny Glasses_Plastik_0"
    },
    {
      "mesh": 1,
      "name": "Johnny Glasses_Siyah_0"
    },
    {
      "mesh": 2,
      "name": "Johnny Glasses_Gold_0"
    },
    {
      "mesh": 3,
      "name": "Johnny Glasses_Gold_0"
    },
    {
      "mesh": 4,
      "name": "Johnny Glasses_Cam_0"
    },
    {
      "children": [
        12
      ],
      "matrix": [
        100.0,
        0.0,
        0.0,
        0.0,
        0.0,
        99.99999999999972,
        -7.5497901264043296e-06,
        0.0,
        0.0,
        7.5497901264043296e-06,
        99.99999999999972,
        0.0,
        -241.80459594726563,
        297.4405212402344,
        -4.229063987731934,
        1.0
      ],
      "name": "Point"
    },
    {
      "children": [
        13
      ],
      "matrix": [
        1.0,
        0.0,
        0.0,
        0.0,
        0.0,
        2.220446049250313e-16,
        1.0,
        0.0,
        0.0,
        -1.0,
        2.220446049250313e-16,
        0.0,
        0.0,
        0.0,
        0.0,
        1.0
      ],
      "name": "Object_12"
    },
    {
      "name": "Object_13"
    }
  ],
  "samplers": [
    {
      "magFilter": 9729,
      "minFilter": 9987,
      "wrapS": 10497,
      "wrapT": 10497
    }
  ],
  "scene": 0,
  "scenes": [
    {
      "name": "Sketchfab_Scene",
      "nodes": [
        0
      ]
    }
  ],
  "textures": [
    {
      "sampler": 0,
      "source": 0
    },
    {
      "sampler": 0,
      "source": 1
    },
    {
      "sampler": 0,
      "source": 2
    },
    {
      "sampler": 0,
      "source": 3
    }
  ]
}
